HIERARCHY
ROOT hip
{
OFFSET 0.05 93.93 0.81
CHANNELS 6 Xposition Yposition Zposition Zrotation Xrotation Yrotation
JOINT abdomen
{
OFFSET 0 7.23 0
CHANNELS 6 Xposition Yposition Zposition Zrotation Xrotation Yrotation
JOINT chest
{
OFFSET 0 16.54 0
CHANNELS 6 Xposition Yposition Zposition Zrotation Xrotation Yrotation
JOINT neck
{
OFFSET 0 34.21 0
CHANNELS 6 Xposition Yposition Zposition Zrotation Xrotation Yrotation
JOINT head
{
OFFSET 0 6.29 0
CHANNELS 6 Xposition Yposition Zposition Zrotation Xrotation Yrotation
End Site
{
OFFSET 0 21.21 0
}
}
}
JOINT lCollar
{
OFFSET 4.06 26.61 -1.12
CHANNELS 6 Xposition Yposition Zposition Zrotation Xrotation Yrotation
JOINT lShldr
{
OFFSET 14.17 0 0
CHANNELS 6 Xposition Yposition Zposition Zrotation Xrotation Yrotation
JOINT lForeArm
{
OFFSET 26.12 0 0
CHANNELS 6 Xposition Yposition Zposition Zrotation Xrotation Yrotation
JOINT lHand
{
OFFSET 27.71 0 0
CHANNELS 6 Xposition Yposition Zposition Zrotation Xrotation Yrotation
JOINT lThumb1
{
OFFSET 2.29 -0.46 1.83
CHANNELS 6 Xposition Yposition Zposition Zrotation Xrotation Yrotation
JOINT lThumb2
{
OFFSET 5.29 0 0
CHANNELS 6 Xposition Yposition Zposition Zrotation Xrotation Yrotation
JOINT lThumb3
{
OFFSET 3.01 0 0
CHANNELS 6 Xposition Yposition Zposition Zrotation Xrotation Yrotation
End Site
{
OFFSET 2.62 0 0
}
}
}
}
JOINT lIndex1
{
OFFSET 9.37 0.29 2.59
CHANNELS 6 Xposition Yposition Zposition Zrotation Xrotation Yrotation
JOINT lIndex2
{
OFFSET 4.34 0 0
CHANNELS 6 Xposition Yposition Zposition Zrotation Xrotation Yrotation
JOINT lIndex3
{
OFFSET 2.16 0 0
CHANNELS 6 Xposition Yposition Zposition Zrotation Xrotation Yrotation
End Site
{
OFFSET 2.20 0 0
}
}
}
}
JOINT lMid1
{
OFFSET 9.47 0.83 0.29
CHANNELS 6 Xposition Yposition Zposition Zrotation Xrotation Yrotation
JOINT lMid2
{
OFFSET 4.77 0 0
CHANNELS 6 Xposition Yposition Zposition Zrotation Xrotation Yrotation
JOINT lMid3
{
OFFSET 2.87 0 0
CHANNELS 6 Xposition Yposition Zposition Zrotation Xrotation Yrotation
End Site
{
OFFSET 2.09 0 0
}
}
}
}
JOINT lRing1
{
OFFSET 8.65 1.01 -1.70
CHANNELS 6 Xposition Yposition Zposition Zrotation Xrotation Yrotation
JOINT lRing2
{
OFFSET 4.54 0 0
CHANNELS 6 Xposition Yposition Zposition Zrotation Xrotation Yrotation
JOINT lRing3
{
OFFSET 2.50 0 0
CHANNELS 6 Xposition Yposition Zposition Zrotation Xrotation Yrotation
End Site
{
OFFSET 2.20 0 0
}
}
}
}
JOINT lPinky1
{
OFFSET 7.69 0.66 -3.90
CHANNELS 6 Xposition Yposition Zposition Zrotation Xrotation Yrotation
JOINT lPinky2
{
OFFSET 3.21 0 0
CHANNELS 6 Xposition Yposition Zposition Zrotation Xrotation Yrotation
JOINT lPinky3
{
OFFSET 1.92 0 0
CHANNELS 6 Xposition Yposition Zposition Zrotation Xrotation Yrotation
End Site
{
OFFSET 1.78 0 0
}
}
}
}
}
}
}
}
JOINT rCollar
{
OFFSET -4.06 26.61 -1.12
CHANNELS 6 Xposition Yposition Zposition Zrotation Xrotation Yrotation
JOINT rShldr
{
OFFSET -14.17 0 0
CHANNELS 6 Xposition Yposition Zposition Zrotation Xrotation Yrotation
JOINT rForeArm
{
OFFSET -26.12 0 0
CHANNELS 6 Xposition Yposition Zposition Zrotation Xrotation Yrotation
JOINT rHand
{
OFFSET -27.71 0 0
CHANNELS 6 Xposition Yposition Zposition Zrotation Xrotation Yrotation
JOINT rThumb1
{
OFFSET -2.29 -0.46 1.83
CHANNELS 6 Xposition Yposition Zposition Zrotation Xrotation Yrotation
JOINT rThumb2
{
OFFSET -5.29 0 0
CHANNELS 6 Xposition Yposition Zposition Zrotation Xrotation Yrotation
JOINT rThumb3
{
OFFSET -3.01 0 0
CHANNELS 6 Xposition Yposition Zposition Zrotation Xrotation Yrotation
End Site
{
OFFSET -2.62 0 0
}
}
}
}
JOINT rIndex1
{
OFFSET -9.37 0.29 2.59
CHANNELS 6 Xposition Yposition Zposition Zrotation Xrotation Yrotation
JOINT rIndex2
{
OFFSET -4.34 0 0
CHANNELS 6 Xposition Yposition Zposition Zrotation Xrotation Yrotation
JOINT rIndex3
{
OFFSET -2.16 0 0
CHANNELS 6 Xposition Yposition Zposition Zrotation Xrotation Yrotation
End Site
{
OFFSET -2.20 0 0
}
}
}
}
JOINT rMid1
{
OFFSET -9.47 0.83 0.29
CHANNELS 6 Xposition Yposition Zposition Zrotation Xrotation Yrotation
JOINT rMid2
{
OFFSET -4.77 0 0
CHANNELS 6 Xposition Yposition Zposition Zrotation Xrotation Yrotation
JOINT rMid3
{
OFFSET -2.87 0 0
CHANNELS 6 Xposition Yposition Zposition Zrotation Xrotation Yrotation
End Site
{
OFFSET -2.09 0 0
}
}
}
}
JOINT rRing1
{
OFFSET -8.65 1.01 -1.70
CHANNELS 6 Xposition Yposition Zposition Zrotation Xrotation Yrotation
JOINT rRing2
{
OFFSET -4.54 0 0
CHANNELS 6 Xposition Yposition Zposition Zrotation Xrotation Yrotation
JOINT rRing3
{
OFFSET -2.50 0 0
CHANNELS 6 Xposition Yposition Zposition Zrotation Xrotation Yrotation
End Site
{
OFFSET -2.20 0 0
}
}
}
}
JOINT rPinky1
{
OFFSET -7.69 0.66 -3.90
CHANNELS 6 Xposition Yposition Zposition Zrotation Xrotation Yrotation
JOINT rPinky2
{
OFFSET -3.21 0 0
CHANNELS 6 Xposition Yposition Zposition Zrotation Xrotation Yrotation
JOINT rPinky3
{
OFFSET -1.92 0 0
CHANNELS 6 Xposition Yposition Zposition Zrotation Xrotation Yrotation
End Site
{
OFFSET -1.78 0 0
}
}
}
}
}
}
}
}
}
}
JOINT lThigh
{
OFFSET 8.73 -0 0
CHANNELS 6 Xposition Yposition Zposition Zrotation Xrotation Yrotation
JOINT lShin
{
OFFSET 0 -46.66 0
CHANNELS 6 Xposition Yposition Zposition Zrotation Xrotation Yrotation
JOINT lFoot
{
OFFSET 0 -40.14 0
CHANNELS 6 Xposition Yposition Zposition Zrotation Xrotation Yrotation
JOINT lToes
{
OFFSET 0 -8.88 14.22
CHANNELS 6 Xposition Yposition Zposition Zrotation Xrotation Yrotation
End Site
{
OFFSET 0 0 6.29
}
}
}
}
}
JOINT rThigh
{
OFFSET -8.73 0 -0
CHANNELS 6 Xposition Yposition Zposition Zrotation Xrotation Yrotation
JOINT rShin
{
OFFSET 0 -46.66 0
CHANNELS 6 Xposition Yposition Zposition Zrotation Xrotation Yrotation
JOINT rFoot
{
OFFSET 0 -40.14 0
CHANNELS 6 Xposition Yposition Zposition Zrotation Xrotation Yrotation
JOINT rToes
{
OFFSET 0 -8.88 14.22
CHANNELS 6 Xposition Yposition Zposition Zrotation Xrotation Yrotation
End Site
{
OFFSET 0 0 6.29
}
}
}
}
}
}
MOTION
Frames: 6
Frame Time: 0.03
-0.39 88.67 -7.72 1.51 12.10 -4.55 0 7.23 0 -1.40 2.55 -0.56 0 16.54 0 -2.79 6.97 -0.85 0 34.21 0 0.53 37.95 1.13 0 6.29 0 5.20 -52.09 8.89 4.06 26.61 -1.12 11.62 -5.47 -4.94 14.17 0 0 -40.90 -40.68 14.53 26.12 0 0 -0.74 0.43 -59.97 27.71 0 0 -47.00 -71.72 -28.85 2.29 -0.46 1.83 28.33 58.42 -42.08 5.29 0 0 0.69 9.87 1.76 3.01 0 0 -1.81 -2.29 -7.61 9.37 0.29 2.59 -0.52 -0.98 -5.86 4.34 0 0 -18.20 -0.37 4.06 2.16 0 0 -10.50 -0.20 1.83 9.47 0.83 0.29 -0.94 -4.04 -1.16 4.77 0 0 -22.77 -1.15 6.19 2.87 0 0 -5.03 0.04 2.88 8.65 1.01 -1.70 -13.24 2.38 8.68 4.54 0 0 -15.19 -0.31 2.34 2.50 0 0 0.14 0.06 1.03 7.69 0.66 -3.90 -22.92 -9.25 15.32 3.21 0 0 -16.86 0.30 1.93 1.92 0 0 -0.49 0.06 1.80 -4.06 26.61 -1.12 0.32 -4.10 6.29 -14.17 0 0 40.95 -21.37 -17.41 -26.12 0 0 0.68 0.34 52.87 -27.71 0 0 -2.50 -70.87 -11.69 -2.29 -0.46 1.83 -45.32 65.84 67.85 -5.29 0 0 3.74 16.01 -7.48 -3.01 0 0 -7.55 8.06 13.40 -9.37 0.29 2.59 -5.05 -1.33 9.81 -4.34 0 0 13.61 -0.09 -3.07 -2.16 0 0 12.86 -0.31 -2.36 -9.47 0.83 0.29 0.06 -3.97 5.84 -4.77 0 0 20.09 -0.88 -5.52 -2.87 0 0 5.73 0.13 -3.08 -8.65 1.01 -1.70 6.98 2.60 -2.73 -4.54 0 0 24.03 -0.78 -3.67 -2.50 0 0 0.21 -0.04 -1.10 -7.69 0.66 -3.90 18.15 -8.82 -7.72 -3.21 0 0 20.85 -1.39 -7.55 -1.92 0 0 2.02 0.04 -2.37 8.73 -0 0 10.04 -34.65 21.16 0 -46.66 0 6.37 51.15 -2.96 0 -40.14 0 -6.40 -26.64 6.42 0 -8.88 14.22 0 0 -0 -8.73 0 -0 -12.32 -35.96 -18.85 0 -46.66 0 -5.88 51.01 -0.29 0 -40.14 0 9.14 -24.50 -5.86 0 -8.88 14.22 0 0 -0 
-0.22 89.17 -7.13 1.45 11.83 -4.96 0 7.23 0 -1.40 2.33 -0.43 0 16.54 0 -2.79 6.54 -0.60 0 34.21 0 0.96 37.74 0.39 0 6.29 0 4.92 -53.07 5.79 4.06 26.61 -1.12 11.51 -5.50 -5.45 14.17 0 0 -41.10 -37.75 14.16 26.12 0 0 -0.65 0.30 -49.85 27.71 0 0 -47.17 -72.14 -29.07 2.29 -0.46 1.83 30.27 58.83 -43.47 5.29 0 0 0.66 9.96 1.68 3.01 0 0 -1.88 -2.19 -7.62 9.37 0.29 2.59 -0.93 -1.04 -5.51 4.34 0 0 -18.39 -0.38 4.10 2.16 0 0 -10.45 -0.20 1.82 9.47 0.83 0.29 -1.19 -4.08 -0.71 4.77 0 0 -23.22 -1.20 6.31 2.87 0 0 -4.83 0.05 2.83 8.65 1.01 -1.70 -13.49 2.39 8.63 4.54 0 0 -15.31 -0.31 2.36 2.50 0 0 0.26 0.06 1.01 7.69 0.66 -3.90 -23.66 -9.29 15.23 3.21 0 0 -16.90 0.30 1.95 1.92 0 0 -0.45 0.06 1.78 -4.06 26.61 -1.12 0.67 -4.07 5.46 -14.17 0 0 41.39 -21.72 -17.42 -26.12 0 0 0.68 0.34 52.80 -27.71 0 0 -1.95 -70.48 -11.89 -2.29 -0.46 1.83 -45.98 65.68 68.68 -5.29 0 0 3.58 16.24 -7.21 -3.01 0 0 -7.56 8.06 13.37 -9.37 0.29 2.59 -5.58 -1.35 9.68 -4.34 0 0 13.80 -0.10 -3.11 -2.16 0 0 12.97 -0.31 -2.38 -9.47 0.83 0.29 -0.34 -3.98 5.78 -4.77 0 0 20.33 -0.91 -5.58 -2.87 0 0 5.75 0.12 -3.09 -8.65 1.01 -1.70 7.01 2.60 -2.50 -4.54 0 0 24.70 -0.82 -3.77 -2.50 0 0 0.14 -0.03 -1.09 -7.69 0.66 -3.90 17.95 -8.84 -7.12 -3.21 0 0 21.21 -1.44 -7.68 -1.92 0 0 1.94 0.05 -2.34 8.73 -0 0 9.61 -33.27 20.89 0 -46.66 0 6.24 49.66 -2.43 0 -40.14 0 -6.54 -26.30 6.40 0 -8.88 14.22 0 0 0 -8.73 0 -0 -11.83 -34.67 -18.35 0 -46.66 0 -5.78 49.33 -0.21 0 -40.14 0 9.21 -23.91 -5.89 0 -8.88 14.22 0 0 0 
-0.06 89.62 -6.46 1.36 11.40 -5.56 0 7.23 0 -1.37 2.10 -0.27 0 16.54 0 -2.75 6.06 -0.29 0 34.21 0 1.28 37.65 -0.10 0 6.29 0 4.59 -53.49 3.66 4.06 26.61 -1.12 10.62 -5.42 -5.75 14.17 0 0 -41.01 -36.27 14.15 26.12 0 0 -0.58 0.23 -43.10 27.71 0 0 -49.07 -72.16 -32.07 2.29 -0.46 1.83 34.75 58.88 -47.88 5.29 0 0 0.58 10.37 1.47 3.01 0 0 -1.89 -2.07 -7.56 9.37 0.29 2.59 -1.41 -1.09 -5.02 4.34 0 0 -18.72 -0.41 4.17 2.16 0 0 -10.40 -0.19 1.81 9.47 0.83 0.29 -1.56 -4.10 -0.45 4.77 0 0 -23.90 -1.28 6.48 2.87 0 0 -4.64 0.05 2.77 8.65 1.01 -1.70 -13.90 2.40 8.39 4.54 0 0 -15.47 -0.32 2.38 2.50 0 0 0.37 0.06 0.99 7.69 0.66 -3.90 -24.42 -9.34 14.95 3.21 0 0 -16.98 0.29 1.98 1.92 0 0 -0.42 0.06 1.77 -4.06 26.61 -1.12 1.00 -4.05 4.82 -14.17 0 0 40.06 -22.46 -18.53 -26.12 0 0 0.70 0.36 54.80 -27.71 0 0 -4.44 -69.81 -14.76 -2.29 -0.46 1.83 -46.34 65.49 69.19 -5.29 0 0 3.58 16.31 -7.15 -3.01 0 0 -7.53 8.05 13.49 -9.37 0.29 2.59 -5.81 -1.36 9.49 -4.34 0 0 13.97 -0.11 -3.15 -2.16 0 0 13.08 -0.32 -2.41 -9.47 0.83 0.29 -0.61 -3.99 5.70 -4.77 0 0 20.47 -0.92 -5.62 -2.87 0 0 5.79 0.12 -3.10 -8.65 1.01 -1.70 7.10 2.60 -2.28 -4.54 0 0 25.26 -0.86 -3.85 -2.50 0 0 0.09 -0.02 -1.08 -7.69 0.66 -3.90 18.24 -8.88 -6.44 -3.21 0 0 21.48 -1.47 -7.77 -1.92 0 0 1.87 0.05 -2.32 8.73 -0 0 9.30 -31.68 20.73 0 -46.66 0 6.13 48.30 -1.82 0 -40.14 0 -6.77 -26.10 6.35 0 -8.88 14.22 0 0 -0 -8.73 0 -0 -11.19 -33.25 -17.70 0 -46.66 0 -5.88 47.71 0.06 0 -40.14 0 9.33 -23.40 -5.91 0 -8.88 14.22 0 0 0 
0.02 89.91 -5.88 1.23 10.97 -6.15 0 7.23 0 -1.33 1.89 -0.19 0 16.54 0 -2.68 5.65 -0.15 0 34.21 0 1.48 37.63 -0.32 0 6.29 0 4.42 -53.51 2.84 4.06 26.61 -1.12 9.26 -5.23 -5.54 14.17 0 0 -41.20 -36.10 15.12 26.12 0 0 -0.58 0.22 -42.85 27.71 0 0 -44.95 -73.77 -28.98 2.29 -0.46 1.83 39.35 58.30 -52.96 5.29 0 0 0.45 11.00 1.13 3.01 0 0 -1.90 -2.00 -7.58 9.37 0.29 2.59 -1.72 -1.12 -4.54 4.34 0 0 -19.05 -0.43 4.24 2.16 0 0 -10.37 -0.19 1.80 9.47 0.83 0.29 -1.93 -4.09 -0.41 4.77 0 0 -24.55 -1.35 6.65 2.87 0 0 -4.48 0.06 2.73 8.65 1.01 -1.70 -14.30 2.40 8.04 4.54 0 0 -15.61 -0.33 2.40 2.50 0 0 0.45 0.06 0.98 7.69 0.66 -3.90 -25.05 -9.41 14.60 3.21 0 0 -17.05 0.29 2.00 1.92 0 0 -0.41 0.06 1.77 -4.06 26.61 -1.12 1.15 -4.04 4.35 -14.17 0 0 37.95 -23.24 -18.98 -26.12 0 0 0.71 0.38 56.70 -27.71 0 0 -6.42 -69.48 -16.80 -2.29 -0.46 1.83 -46.21 65.29 69.12 -5.29 0 0 3.65 16.29 -7.18 -3.01 0 0 -7.49 8.06 13.71 -9.37 0.29 2.59 -5.82 -1.36 9.26 -4.34 0 0 14.08 -0.11 -3.17 -2.16 0 0 13.15 -0.32 -2.42 -9.47 0.83 0.29 -0.77 -3.99 5.63 -4.77 0 0 20.48 -0.92 -5.62 -2.87 0 0 5.82 0.12 -3.11 -8.65 1.01 -1.70 7.16 2.60 -2.09 -4.54 0 0 25.54 -0.88 -3.89 -2.50 0 0 0.07 -0 -1.08 -7.69 0.66 -3.90 18.85 -8.91 -5.85 -3.21 0 0 21.60 -1.49 -7.81 -1.92 0 0 1.84 0.05 -2.30 8.73 -0 0 9.20 -30.35 20.74 0 -46.66 0 6.04 47.44 -1.32 0 -40.14 0 -7.00 -26.08 6.29 0 -8.88 14.22 0 0 0 -8.73 0 -0 -10.58 -32.11 -17.12 0 -46.66 0 -6.09 46.59 0.40 0 -40.14 0 9.45 -23.11 -5.90 0 -8.88 14.22 0 0 -0 
0.04 90.01 -5.49 1.14 10.64 -6.56 0 7.23 0 -1.30 1.78 -0.22 0 16.54 0 -2.63 5.43 -0.21 0 34.21 0 1.56 37.60 -0.29 0 6.29 0 4.50 -53.32 3.16 4.06 26.61 -1.12 8.08 -5.04 -4.63 14.17 0 0 -41.17 -36.87 15.51 26.12 0 0 -0.59 0.24 -43.99 27.71 0 0 -40.85 -74.88 -25.51 2.29 -0.46 1.83 42.20 57.23 -56.52 5.29 0 0 0.29 11.66 0.74 3.01 0 0 -1.94 -1.98 -7.78 9.37 0.29 2.59 -1.85 -1.13 -4.15 4.34 0 0 -19.27 -0.45 4.29 2.16 0 0 -10.35 -0.19 1.80 9.47 0.83 0.29 -2.23 -4.07 -0.53 4.77 0 0 -24.97 -1.40 6.75 2.87 0 0 -4.39 0.06 2.71 8.65 1.01 -1.70 -14.60 2.39 7.68 4.54 0 0 -15.64 -0.33 2.41 2.50 0 0 0.50 0.06 0.97 7.69 0.66 -3.90 -25.48 -9.46 14.29 3.21 0 0 -17.05 0.29 2.00 1.92 0 0 -0.40 0.06 1.77 -4.06 26.61 -1.12 1.23 -4.04 3.99 -14.17 0 0 36.08 -24.24 -18.26 -26.12 0 0 0.73 0.40 58.27 -27.71 0 0 -7.19 -69.82 -17.54 -2.29 -0.46 1.83 -45.66 65.10 68.54 -5.29 0 0 3.73 16.27 -7.21 -3.01 0 0 -7.44 8.07 13.98 -9.37 0.29 2.59 -5.80 -1.36 9.05 -4.34 0 0 14.09 -0.11 -3.18 -2.16 0 0 13.14 -0.32 -2.42 -9.47 0.83 0.29 -0.89 -3.99 5.58 -4.77 0 0 20.37 -0.91 -5.59 -2.87 0 0 5.82 0.12 -3.11 -8.65 1.01 -1.70 7.13 2.59 -1.90 -4.54 0 0 25.50 -0.88 -3.88 -2.50 0 0 0.08 0 -1.08 -7.69 0.66 -3.90 19.57 -8.92 -5.47 -3.21 0 0 21.53 -1.48 -7.79 -1.92 0 0 1.83 0.05 -2.30 8.73 -0 0 9.24 -29.53 20.83 0 -46.66 0 6.03 47.13 -1.05 0 -40.14 0 -7.19 -26.21 6.24 0 -8.88 14.22 0 0 -0 -8.73 0 -0 -10.18 -31.44 -16.74 0 -46.66 0 -6.31 46.13 0.69 0 -40.14 0 9.55 -23.07 -5.89 0 -8.88 14.22 0 0 0 
0.01 89.97 -5.33 1.09 10.43 -6.70 0 7.23 0 -1.28 1.77 -0.26 0 16.54 0 -2.60 5.41 -0.30 0 34.21 0 1.53 37.57 -0.12 0 6.29 0 4.72 -53.05 4.13 4.06 26.61 -1.12 7.38 -4.89 -3.36 14.17 0 0 -40.99 -37.80 16.13 26.12 0 0 -0.63 0.28 -47.78 27.71 0 0 -37.70 -75.79 -22.13 2.29 -0.46 1.83 42.83 56.08 -57.72 5.29 0 0 0.13 12.21 0.34 3.01 0 0 -2.03 -2.03 -8.16 9.37 0.29 2.59 -1.86 -1.13 -3.85 4.34 0 0 -19.35 -0.45 4.30 2.16 0 0 -10.35 -0.19 1.80 9.47 0.83 0.29 -2.45 -4.05 -0.79 4.77 0 0 -25.09 -1.42 6.78 2.87 0 0 -4.37 0.06 2.70 8.65 1.01 -1.70 -14.77 2.39 7.37 4.54 0 0 -15.53 -0.32 2.39 2.50 0 0 0.50 0.06 0.97 7.69 0.66 -3.90 -25.73 -9.49 14.08 3.21 0 0 -16.96 0.30 1.97 1.92 0 0 -0.40 0.06 1.77 -4.06 26.61 -1.12 1.33 -4.03 3.80 -14.17 0 0 34.77 -25.91 -16.85 -26.12 0 0 0.74 0.42 59.29 -27.71 0 0 -7.63 -70.90 -17.60 -2.29 -0.46 1.83 -44.93 64.92 67.73 -5.29 0 0 3.78 16.34 -7.15 -3.01 0 0 -7.39 8.07 14.31 -9.37 0.29 2.59 -5.85 -1.39 8.91 -4.34 0 0 13.99 -0.11 -3.15 -2.16 0 0 13.05 -0.32 -2.40 -9.47 0.83 0.29 -1.00 -3.99 5.56 -4.77 0 0 20.18 -0.89 -5.54 -2.87 0 0 5.80 0.12 -3.10 -8.65 1.01 -1.70 7.02 2.58 -1.72 -4.54 0 0 25.19 -0.85 -3.84 -2.50 0 0 0.14 0.01 -1.08 -7.69 0.66 -3.90 20.24 -8.91 -5.29 -3.21 0 0 21.32 -1.45 -7.71 -1.92 0 0 1.85 0.05 -2.31 8.73 -0 0 9.30 -29.23 20.91 0 -46.66 0 6.11 47.26 -1.04 0 -40.14 0 -7.31 -26.39 6.20 0 -8.88 14.22 0 0 0 -8.73 0 -0 -10.02 -31.21 -16.60 0 -46.66 0 -6.48 46.23 0.86 0 -40.14 0 9.62 -23.23 -5.86 0 -8.88 14.22 -0 0 -0 
